<svg width="192" height="322" viewBox="-0.5 -0.5 192 322" xmlns="http://www.w3.org/2000/svg" xmlns:xlink="http://www.w3.org/1999/xlink" overflow="hidden"><defs></defs><g><rect x="21" y="0" width="149" height="60" fill="none"/><path d="M21.04-0.05C21.04-0.05 21.04-0.05 21.04-0.05M21.04-0.05C21.04-0.05 21.04-0.05 21.04-0.05M20.78 6.35C23.17 4.89 24.15 2.09 26.03 0.31M20.78 6.35C22.43 4.43 24.37 2.15 26.03 0.31M21.17 11.99C23.13 7.7 27.61 7.02 31.67-0.08M21.17 11.99C23.75 8.48 28.57 4.97 31.67-0.08M20.91 18.39C25.68 12.11 32.4 7.25 36.66 0.28M20.91 18.39C24.46 12.65 29.47 7.7 36.66 0.28M21.31 24.03C27.98 16.96 35.2 8.74 42.3-0.12M21.31 24.03C27.62 16.53 35.53 8.59 42.3-0.12M21.05 30.43C31.54 19.78 40.35 7.79 47.29 0.24M21.05 30.43C30.05 19.63 40.06 8.6 47.29 0.24M20.79 36.83C32.53 22.31 44.18 12.31 52.93-0.15M20.79 36.83C33.82 22.73 45.57 7.04 52.93-0.15M21.18 42.47C35.15 24.11 48.07 10.61 57.92 0.21M21.18 42.47C30.02 34.64 35.79 25.63 57.92 0.21M20.92 48.87C36.71 33.6 49.47 15.79 63.56-0.19M20.92 48.87C37.17 30.74 53.63 11.95 63.56-0.19M21.31 54.51C35.2 39.63 48.64 22.74 68.55 0.17M21.31 54.51C32.99 41.31 43.36 29.2 68.55 0.17M21.71 60.16C42.54 38.44 61.89 16.03 74.19-0.22M21.71 60.16C40.1 38.31 57.23 18.73 74.19-0.22M26.69 60.52C36.64 46.07 50.06 34.51 79.18 0.14M26.69 60.52C41.78 41.13 59.43 22.47 79.18 0.14M32.34 60.12C47.63 42.29 65.31 23.92 84.82-0.25M32.34 60.12C47.84 43.54 62.43 26.02 84.82-0.25M37.32 60.48C49.34 48.05 57.89 36.69 89.81 0.11M37.32 60.48C56.52 37.7 75.78 16.89 89.81 0.11M42.97 60.09C62.8 36.98 81.94 15.97 95.45-0.29M42.97 60.09C57.44 43.95 69.42 28.17 95.45-0.29M47.95 60.45C64.27 43.02 79.06 24.62 100.44 0.07M47.95 60.45C65.47 41.22 80.8 21.8 100.44 0.07M53.6 60.05C73.27 40.53 91.12 15.53 106.08-0.32M53.6 60.05C65.18 47.55 76.04 34.71 106.08-0.32M58.58 60.41C77.52 38.57 95.27 19.27 111.07 0.04M58.58 60.41C78.57 38.27 95.86 15.67 111.07 0.04M63.57 60.77C82.15 40.23 98.61 21.57 116.71-0.36M63.57 60.77C84.99 38.29 103.92 15.07 116.71-0.36M69.21 60.38C81.73 44.87 97.21 27.85 121.7 0M69.21 60.38C85.94 41.95 102.21 22.94 121.7 0M74.2 60.74C87.31 42.83 103.09 26.12 126.69 0.36M74.2 60.74C91.35 41.67 106.87 23.99 126.69 0.36M79.84 60.34C95.63 42.43 109.81 25.43 132.33-0.03M79.84 60.34C92.11 46.42 102.08 34.35 132.33-0.03M84.83 60.7C103.43 35.7 125.67 14.98 137.32 0.33M84.83 60.7C102.23 40.15 121.06 17.45 137.32 0.33M90.47 60.31C105.55 39.43 123.57 22.5 142.96-0.07M90.47 60.31C110.45 38.2 129.77 16.3 142.96-0.07M95.46 60.67C108.36 48.06 121.31 33.64 147.95 0.29M95.46 60.67C109.65 45.1 124.37 30.11 147.95 0.29M101.11 60.27C113.73 43.36 128.03 26.58 153.59-0.1M101.11 60.27C116.32 42.19 133.58 23.16 153.59-0.1M106.09 60.64C127.64 35.63 147.17 12.16 158.58 0.26M106.09 60.64C126.49 37.09 144.66 13.63 158.58 0.26M111.74 60.24C129.51 39.3 149.28 14.26 164.22-0.14M111.74 60.24C130.96 38.41 148.48 17.46 164.22-0.14M116.72 60.6C127.9 45.99 141.56 33.55 169.21 0.22M116.72 60.6C137.68 37.4 158.49 12.98 169.21 0.22M122.37 60.21C139.98 37.69 160.58 18.2 172.88 2.09M122.37 60.21C139.81 40.97 157.44 20.18 172.88 2.09M127.35 60.57C138.57 45.6 152.4 32.18 172.62 8.49M127.35 60.57C138.74 47.73 149.17 35.78 172.62 8.49M133 60.17C140.31 49.23 150.53 42.56 172.36 14.89M133 60.17C144.49 46.62 155.89 33.32 172.36 14.89M137.98 60.53C147.18 49.57 157.6 36.8 172.75 20.53M137.98 60.53C151.4 46.48 164.17 30.12 172.75 20.53M143.63 60.14C149.96 52.05 158.35 40.76 172.49 26.93M143.63 60.14C150.81 52.36 158.11 43.1 172.49 26.93M148.61 60.5C157.89 48.83 168.54 40.75 172.89 32.57M148.61 60.5C156.76 53.45 163.03 45.26 172.89 32.57M154.26 60.1C157.63 55.9 161.07 50.72 172.63 38.97M154.26 60.1C161.26 51.68 166.69 45.81 172.63 38.97M159.24 60.46C161.33 55.71 165.9 53.43 172.36 45.37M159.24 60.46C161.18 56.8 165.72 53.11 172.36 45.37M164.89 60.07C167.72 56.64 170.31 54.1 172.76 51.01M164.89 60.07C167.68 56.64 169.83 54.55 172.76 51.01" stroke="#F5F5F5" stroke-width="0.5" stroke-linecap="round" stroke-linejoin="round" stroke-miterlimit="10" fill="none"/><path d="M21 0C68.3 1.96 111.57 0.84 170 0M21 0C72.34 0.08 122.63 1.29 170 0M170 0C168.3 15.67 169.65 31.66 170 60M170 0C170.4 13.93 169.48 28.77 170 60M170 60C121.4 57.05 67.65 60.25 21 60M170 60C136.25 60.66 103.07 60.63 21 60M21 60C19.36 35.31 22.23 13.43 21 0M21 60C21.19 39.13 21.21 16.61 21 0" stroke="#666666" stroke-linecap="round" stroke-linejoin="round" stroke-miterlimit="10" fill="none"/><g transform="translate(-0.5 -0.5)"><g><text fill="#333333" font-family="Georgia" font-size="12" text-anchor="middle" x="96" y="34">DCAT 2.0...</text></g></g><path d="M95.5 120 95.5 68.12" fill="none"/><path d="M95.5 61.12 99 68.12 92 68.12Z" fill="none"/><path d="M95.5 120C96.31 105.45 93.29 89.25 95.5 68.12M95.5 120C94.78 108.29 94.94 96.63 95.5 68.12" stroke="#666666" stroke-linecap="round" stroke-linejoin="round" stroke-miterlimit="10" fill="none"/><path d="M95.5 61.12C97.07 63.76 96.96 65.78 99 68.12M95.5 61.12C96.23 62.73 97.09 64.34 99 68.12M99 68.12C96.69 68.54 92.79 68.29 92 68.12M99 68.12C96.28 68.21 94.07 67.89 92 68.12M92 68.12C93.02 65.04 94.55 62.82 95.5 61.12M92 68.12C93.57 65.75 95.05 62.85 95.5 61.12" stroke="#666666" stroke-linecap="round" stroke-linejoin="round" stroke-miterlimit="10" fill="none"/><rect x="21" y="120" width="149" height="70" fill="none"/><path d="M20.76 120.28C20.76 120.28 20.76 120.28 20.76 120.28M20.76 120.28C20.76 120.28 20.76 120.28 20.76 120.28M21.15 125.92C21.97 124.41 24.38 123.34 26.4 119.89M21.15 125.92C22.32 124.2 24.47 122.28 26.4 119.89M20.89 132.32C23.58 127.53 26.78 124.88 31.39 120.25M20.89 132.32C24.64 128.72 26.78 124.81 31.39 120.25M21.28 137.96C25.87 132.74 30.63 127.12 37.03 119.85M21.28 137.96C25.9 133.24 28.15 129.96 37.03 119.85M21.02 144.36C23.72 138.68 28.85 132.75 42.02 120.21M21.02 144.36C25.69 139.51 31.45 133.5 42.02 120.21M20.76 150.76C30.64 139.13 38 131.77 47.66 119.82M20.76 150.76C30.74 139.01 42.84 126.35 47.66 119.82M21.16 156.4C30.77 144.52 41.53 132.78 52.65 120.18M21.16 156.4C33.68 141.42 47.31 127.04 52.65 120.18M20.89 162.8C33.57 148.62 48.04 134.15 58.29 119.78M20.89 162.8C27.05 154.13 35.34 145.36 58.29 119.78M21.29 168.44C36.77 150.24 55.33 130.93 63.28 120.14M21.29 168.44C33.01 156.57 42.97 144.45 63.28 120.14M21.03 174.84C37.32 156.86 55.47 135.99 68.92 119.75M21.03 174.84C34.47 160.17 46.57 145.48 68.92 119.75M20.77 181.24C42.28 156.14 64.21 132.08 73.91 120.11M20.77 181.24C31.51 167.93 42.77 155.35 73.91 120.11M21.16 186.88C39.92 166.17 60.74 143.64 79.55 119.71M21.16 186.88C34.96 170.71 46.67 157.24 79.55 119.71M22.87 191.02C38.47 173.43 49.96 160.4 84.54 120.07M22.87 191.02C39.49 171.28 56.13 152.99 84.54 120.07M27.85 191.38C40.96 176.37 51.72 163.34 90.18 119.68M27.85 191.38C44.3 172.74 60.06 154.75 90.18 119.68M32.84 191.74C56.97 163.1 80.68 138.28 95.17 120.04M32.84 191.74C46.57 176.6 62.13 158.89 95.17 120.04M38.48 191.34C64.71 163.74 87.31 134.89 100.81 119.64M38.48 191.34C60.45 167.28 81.54 141.13 100.81 119.64M43.47 191.7C64.46 166.23 83.69 140.46 105.8 120M43.47 191.7C59.97 173.16 74.97 154.41 105.8 120M49.11 191.31C65.2 170.9 82.28 151.67 110.78 120.36M49.11 191.31C65.83 172.19 82.56 152.25 110.78 120.36M54.1 191.67C66.95 177.29 80.79 162.61 116.43 119.97M54.1 191.67C74.66 169.02 96.19 144.34 116.43 119.97M59.74 191.27C80.28 170.84 97.6 149.64 121.41 120.33M59.74 191.27C84.75 161.91 108.6 134.94 121.41 120.33M64.73 191.63C83.72 170.12 104.18 148.68 127.06 119.94M64.73 191.63C78.04 175.89 90.33 162.57 127.06 119.94M70.37 191.24C83.43 174.17 100.73 157.1 132.04 120.3M70.37 191.24C86.99 172.58 103.79 152.2 132.04 120.3M75.36 191.6C98.72 168.35 118.1 142.54 137.69 119.9M75.36 191.6C89.6 175.06 104.61 158.41 137.69 119.9M81 191.2C102.16 166.11 126.87 139.38 142.67 120.26M81 191.2C95.14 174.42 109.87 159.01 142.67 120.26M85.99 191.56C103.54 170.3 123.67 147.51 148.32 119.87M85.99 191.56C105.71 170.08 125.47 147.04 148.32 119.87M91.63 191.17C111.08 168.22 130.09 147.84 153.3 120.23M91.63 191.17C114.46 164.42 138.15 136.18 153.3 120.23M96.62 191.53C113.74 169.72 135.23 147.13 158.95 119.83M96.62 191.53C120 165.37 143.78 137.4 158.95 119.83M102.27 191.13C125.52 167.06 146.95 143.4 163.93 120.19M102.27 191.13C118.16 171.73 134.09 154.11 163.93 120.19M107.25 191.49C126.15 167.22 148.7 145.2 169.58 119.8M107.25 191.49C128.24 166.94 149.8 140.91 169.58 119.8M112.9 191.1C134.37 168.12 154.98 142.16 172.6 122.42M112.9 191.1C134.86 168.15 154.79 144.63 172.6 122.42M117.88 191.46C137.18 168.41 157.8 144.6 172.99 128.06M117.88 191.46C134.92 173.06 150.08 154.24 172.99 128.06M123.53 191.07C144.29 168.4 160.53 147.1 172.73 134.46M123.53 191.07C140.35 172.42 156.97 153.76 172.73 134.46M128.51 191.43C146.84 174.1 160.02 154.62 172.47 140.86M128.51 191.43C142.25 176.43 155.01 160.05 172.47 140.86M134.16 191.03C148.74 174.43 163.78 156.33 172.86 146.5M134.16 191.03C146.1 177.52 156.74 165.62 172.86 146.5M139.14 191.39C150.46 174.96 165.74 160.59 172.6 152.9M139.14 191.39C148.46 182.78 156.3 172.3 172.6 152.9M144.79 191C149.43 185.71 154.81 175.13 173 158.54M144.79 191C153.16 182.63 162.2 172.98 173 158.54M149.77 191.36C155.43 183.59 159.09 181.01 172.73 164.94M149.77 191.36C158 181.29 166.73 171.69 172.73 164.94M154.76 191.72C159.08 188.94 161.75 183.21 172.47 171.34M154.76 191.72C161.31 184.81 167.32 177.68 172.47 171.34M160.4 191.32C164.16 185.13 166.83 181.06 172.87 176.98M160.4 191.32C164.07 187.23 167.7 181.9 172.87 176.98M165.39 191.68C167.47 189.06 169.73 185.7 172.61 183.38M165.39 191.68C168.51 188.44 170.92 185.22 172.61 183.38" stroke="#F5F5F5" stroke-width="0.5" stroke-linecap="round" stroke-linejoin="round" stroke-miterlimit="10" fill="none"/><path d="M21 120C67.16 119.13 113.25 118.21 170 120M21 120C52.46 119.4 83.25 119.83 170 120M170 120C168.73 138.86 168.94 162.53 170 190M170 120C169.77 136.44 169.74 151.82 170 190M170 190C126.52 188.45 80.49 189.14 21 190M170 190C131.4 191.1 91.15 189.96 21 190M21 190C22.37 165.49 21.76 141.62 21 120M21 190C20.54 168.88 20.72 146.03 21 120" stroke="#666666" stroke-linecap="round" stroke-linejoin="round" stroke-miterlimit="10" fill="none"/><g transform="translate(-0.5 -0.5)"><g><text fill="#333333" font-family="Georgia" font-size="12" text-anchor="middle" x="96" y="159">DCAT-AP 2.1...</text></g></g><path d="M96 250 96 220 95.64 198.12" fill="none"/><path d="M95.52 191.12 99.13 198.06 92.14 198.18Z" fill="none"/><path d="M96 250C94.15 239.18 96.31 233.48 96 220M96 250C96.3 239.19 94.89 229.43 96 220M96 220C97.35 210.93 95.14 203.65 95.64 198.12M96 220C95.71 212.17 95.34 203.3 95.64 198.12" stroke="#666666" stroke-linecap="round" stroke-linejoin="round" stroke-miterlimit="10" fill="none"/><path d="M95.52 191.12C95.99 192.63 97.94 196.11 99.13 198.06M95.52 191.12C97.04 193.54 97.77 196.34 99.13 198.06M99.13 198.06C97.2 197.66 93.95 197.93 92.14 198.18M99.13 198.06C96.52 198.24 93.82 198.04 92.14 198.18M92.14 198.18C92.8 197.34 92.96 195.65 95.52 191.12M92.14 198.18C93.13 195.96 94.8 192.97 95.52 191.12" stroke="#666666" stroke-linecap="round" stroke-linejoin="round" stroke-miterlimit="10" fill="none"/><rect x="1" y="250" width="190" height="70" fill="none"/><path d="M0.91 250.1C0.91 250.1 0.91 250.1 0.91 250.1M0.91 250.1C0.91 250.1 0.91 250.1 0.91 250.1M1.04 262.14C4.85 256.6 8.22 255.52 11.54 250.07M1.04 262.14C4.02 259.1 7.15 255.98 11.54 250.07M1.18 274.19C4.88 268.37 10.31 263.73 22.17 250.04M1.18 274.19C7.82 266.8 13.55 258.65 22.17 250.04M1.31 286.23C11.38 272.42 23.46 264 32.8 250M1.31 286.23C8.25 278.83 15.05 271.43 32.8 250M0.79 299.02C13.9 287.68 22.7 272.83 43.43 249.97M0.79 299.02C15.73 281.52 28.87 266.16 43.43 249.97M0.92 311.06C12.99 295.48 29.34 281.33 54.06 249.93M0.92 311.06C12.89 297.71 25.32 283.14 54.06 249.93M2.36 321.59C24.4 295.47 44.73 273.96 64.69 249.9M2.36 321.59C13.56 307.53 27.29 292.22 64.69 249.9M12.99 321.56C30.85 299.88 50.29 275.89 75.32 249.86M12.99 321.56C36.39 292.15 62.34 263.91 75.32 249.86M23.62 321.53C38.28 304.38 51.01 287.73 85.95 249.83M23.62 321.53C43.11 297.54 63.81 274.55 85.95 249.83M34.25 321.49C47.66 302.71 64.2 289.16 96.58 249.79M34.25 321.49C53.59 299.38 71.67 277.23 96.58 249.79M44.88 321.46C58.11 307.27 69.71 291.8 107.21 249.76M44.88 321.46C61.68 301.82 77.92 283.43 107.21 249.76M55.51 321.42C69.64 303.23 81.78 287.62 117.84 249.72M55.51 321.42C77.26 296.81 98.16 273.71 117.84 249.72M66.15 321.39C87.92 295.61 111.02 268.63 128.47 249.69M66.15 321.39C81.41 304.6 95.6 286.43 128.47 249.69M76.78 321.35C101.47 291.78 124.83 265.1 139.1 249.66M76.78 321.35C97.41 296.64 118.55 273.26 139.1 249.66M87.41 321.32C99.68 304.48 115.91 290.3 149.07 250.38M87.41 321.32C111.98 292.88 136.82 266.08 149.07 250.38M98.04 321.28C114.68 300.04 133.68 278.47 159.7 250.34M98.04 321.28C122.51 294.3 144.05 269.23 159.7 250.34M108.67 321.25C128.61 299.35 149.4 277.18 170.33 250.31M108.67 321.25C125.7 300.58 144.54 278.58 170.33 250.31M119.3 321.22C134.8 305.74 148.13 290.13 180.97 250.27M119.3 321.22C142.3 292.78 165.46 267.14 180.97 250.27M129.93 321.18C146.33 301.12 166.76 279.83 191.6 250.24M129.93 321.18C149.29 301.38 165.75 279.48 191.6 250.24M140.56 321.15C157.98 301.24 171.39 286.49 191.73 262.28M140.56 321.15C155.57 305.02 170.77 287.05 191.73 262.28M151.19 321.11C164.99 307.67 176.22 292.9 191.21 275.07M151.19 321.11C164.23 305.81 177.63 292.14 191.21 275.07M161.82 321.08C167.51 314.28 174.9 307.52 191.34 287.12M161.82 321.08C170.64 308.99 179.88 298.55 191.34 287.12M172.45 321.04C177.75 315.84 184.66 305.19 191.47 299.16M172.45 321.04C178.52 314.94 183.74 308.91 191.47 299.16M183.08 321.01C183.59 318.97 187.57 316.72 191.6 311.2M183.08 321.01C185.95 318.32 188.19 316.05 191.6 311.2" stroke="#DAE8FC" stroke-linecap="round" stroke-linejoin="round" stroke-miterlimit="10" fill="none"/><path d="M1 250C58.56 249.25 116.02 248.53 191 250M1 250C53.97 248.46 108.64 248.11 191 250M191 250C188.85 273.49 191.91 294.29 191 320M191 250C192.12 278.48 190.99 305.91 191 320M191 320C141.96 319.61 92.95 317.81 1 320M191 320C133 321.82 75.13 321.56 1 320M1 320C-0.06 299.62-0.13 281.71 1 250M1 320C0.54 302.19 0.89 284.58 1 250" stroke="#6C8EBF" stroke-width="2" stroke-linecap="round" stroke-linejoin="round" stroke-miterlimit="10" fill="none"/><g transform="translate(-0.5 -0.5)"><g><text fill="#003366" font-family="Georgia" font-weight="700" font-size="12" text-anchor="middle" x="96" y="289">DCAT-AP-DONL 2.0...</text></g></g></g><g><a transform="matrix(1 0 0 1 0 -5)"><text font-size="10" text-anchor="middle" x="50%" y="100%">Text is not SVG - cannot display</text></a></g></svg>