<svg width="796" height="429" viewBox="-0.5 -0.5 796 429" xmlns="http://www.w3.org/2000/svg" xmlns:xlink="http://www.w3.org/1999/xlink" overflow="hidden"><defs></defs><g><path d="M427 30 315.12 30" fill="none"/><path d="M308.12 30 315.12 26.5 315.12 33.5Z" fill="none"/><path d="M427 30C402.18 27.32 377.32 29.56 315.12 30M427 30C398.43 29.11 369 29.51 315.12 30" stroke="#666666" stroke-linecap="round" stroke-linejoin="round" stroke-miterlimit="10" fill="none"/><path d="M307.97 30.17C307.97 30.17 307.97 30.17 307.97 30.17M307.97 30.17C307.97 30.17 307.97 30.17 307.97 30.17M311.65 32.04C312.79 30.75 314.67 28.41 315.59 27.51M311.65 32.04C313.11 30.68 314.37 28.6 315.59 27.51" stroke="#666666" stroke-width="0.5" stroke-linecap="round" stroke-linejoin="round" stroke-miterlimit="10" fill="none"/><path d="M308.12 30C310.1 28.54 313.11 26.98 315.12 26.5M308.12 30C311.02 28.75 313.57 27.27 315.12 26.5M315.12 26.5C315.34 27.88 314.9 30.9 315.12 33.5M315.12 26.5C314.94 27.6 314.92 29.36 315.12 33.5M315.12 33.5C312.08 32.74 310.62 31.06 308.12 30M315.12 33.5C313.26 32.5 311.46 31.86 308.12 30" stroke="#666666" stroke-linecap="round" stroke-linejoin="round" stroke-miterlimit="10" fill="none"/><g transform="translate(-0.5 -0.5)"><g><text font-family="Garamond" font-size="14" text-anchor="middle" x="367" y="34">0..n</text></g></g><rect x="427" y="0" width="160" height="60" fill="none"/><path d="M427.09-0.11C427.09-0.11 427.09-0.11 427.09-0.11M427.09-0.11C427.09-0.11 427.09-0.11 427.09-0.11M426.83 6.29C428.54 3.14 431.23 1.39 432.08 0.25M426.83 6.29C428.16 4.19 429.76 2.43 432.08 0.25M427.23 11.93C429.74 7.49 433.42 4.18 437.72-0.14M427.23 11.93C429.53 9.57 431.36 6.77 437.72-0.14M426.97 18.33C432.69 12.54 433.39 10.04 442.71 0.22M426.97 18.33C431.12 13.4 436.1 7.74 442.71 0.22M426.7 24.73C433.34 16.53 442.13 4.87 448.35-0.18M426.7 24.73C430.14 19.44 435.52 14.47 448.35-0.18M427.1 30.37C434.35 21.66 441.1 12.86 453.34 0.18M427.1 30.37C434.57 23.41 441.4 14.08 453.34 0.18M426.84 36.77C439.87 22.49 452.46 9.12 458.98-0.21M426.84 36.77C434.97 28.31 442.44 19.69 458.98-0.21M427.23 42.41C435.93 33.08 446.1 23.61 463.97 0.15M427.23 42.41C439.33 29.66 450.62 15.18 463.97 0.15M426.97 48.81C438.39 38.65 448.43 27 469.61-0.25M426.97 48.81C440.71 32.3 457.46 14.24 469.61-0.25M426.71 55.21C444.3 32.7 463.58 12.77 474.6 0.11M426.71 55.21C443.73 34.55 461.65 15.13 474.6 0.11M427.76 60.1C444.88 40.73 463.65 20.23 480.24-0.28M427.76 60.1C441.69 44.98 453.96 29.45 480.24-0.28M432.75 60.46C443.88 49.45 454.18 35.07 485.23 0.08M432.75 60.46C449.35 41.55 466.88 22.46 485.23 0.08M438.39 60.06C453.94 44.11 466.59 27.5 490.88-0.32M438.39 60.06C454.82 42.65 468.04 25.49 490.88-0.32M443.38 60.42C457.81 45.01 469.13 30.32 495.86 0.04M443.38 60.42C458.53 41.72 472.99 25.96 495.86 0.04M448.36 60.78C469.58 37.15 488.52 13.58 501.51-0.35M448.36 60.78C463.54 42.55 479.31 24.99 501.51-0.35M454.01 60.39C472.39 42.48 487.1 20.52 506.49 0.01M454.01 60.39C465.75 46.66 478.61 32 506.49 0.01M458.99 60.75C471.47 43.63 484.71 31.88 511.48 0.37M458.99 60.75C475.37 42.33 491.82 23.61 511.48 0.37M464.64 60.35C481.09 42.37 497.89 21.17 517.12-0.02M464.64 60.35C480.8 43.35 493.93 27.07 517.12-0.02M469.62 60.71C489.86 36.79 512.81 14.39 522.11 0.34M469.62 60.71C487.3 40.17 503.05 22.12 522.11 0.34M475.27 60.32C488.68 47.25 497.62 33.98 527.75-0.06M475.27 60.32C486.41 48.37 495.8 36.23 527.75-0.06M480.25 60.68C494.09 42.55 511.23 24.47 532.74 0.3M480.25 60.68C495.74 42.63 511.18 24.36 532.74 0.3M485.9 60.28C506.84 37.19 524.03 16.15 538.38-0.09M485.9 60.28C503.93 38.99 522.62 15.87 538.38-0.09M490.88 60.64C503.59 42.62 519.04 27.82 543.37 0.27M490.88 60.64C507.25 40.49 524.12 19.99 543.37 0.27M496.53 60.25C512.49 42.72 526.6 23.85 549.01-0.13M496.53 60.25C513.47 40.25 532.26 19.22 549.01-0.13M501.51 60.61C511.53 45.74 523.19 34.47 554 0.23M501.51 60.61C517.86 41.89 534.77 21.94 554 0.23M507.16 60.21C522.45 41.61 542.44 22.32 559.64-0.16M507.16 60.21C523.31 40.7 541.72 21.72 559.64-0.16M512.14 60.57C527.83 43.89 542.21 24.77 564.63 0.2M512.14 60.57C524.74 46.59 538.51 30.56 564.63 0.2M517.79 60.18C531.77 45.96 546.39 27.45 570.27-0.2M517.79 60.18C534.43 40.41 552.86 21.19 570.27-0.2M522.77 60.54C536.14 48.05 546.54 35.38 575.26 0.16M522.77 60.54C541.91 39.26 560.16 16.88 575.26 0.16M528.42 60.15C546.39 38.38 566.92 15.7 580.9-0.23M528.42 60.15C545.28 39.43 564.5 20.29 580.9-0.23M533.41 60.51C543.75 49.47 555.55 38.2 585.89 0.13M533.41 60.51C553.48 37.56 574.42 12.93 585.89 0.13M539.05 60.11C559.34 38.58 578.3 17.77 589.56 2M539.05 60.11C548.97 48.64 559.88 35.92 589.56 2M544.04 60.47C561.62 41.36 576.72 19.42 589.3 8.4M544.04 60.47C556.8 46.41 567.89 32.05 589.3 8.4M549.68 60.08C560.83 48.48 571.66 33.35 589.7 14.04M549.68 60.08C565.44 43.9 579.21 27.77 589.7 14.04M554.67 60.44C568.36 44.4 578.51 30.86 589.44 20.44M554.67 60.44C563.88 49.39 572.95 40.11 589.44 20.44M560.31 60.04C572.13 46.66 579.84 37.5 589.17 26.83M560.31 60.04C566.47 51.88 574.34 42.55 589.17 26.83M565.3 60.4C574.55 49.86 579.76 40.14 589.57 32.48M565.3 60.4C569.91 54.15 574.72 48.5 589.57 32.48M570.28 60.76C577.43 55.09 582.32 48.71 589.31 38.88M570.28 60.76C576.38 53.21 581.47 47.36 589.31 38.88M575.93 60.37C579.71 55.5 587.15 47.95 589.7 44.52M575.93 60.37C580.13 56.48 584.6 51.21 589.7 44.52M580.91 60.73C584.95 56.44 587.47 54.45 589.44 50.92M580.91 60.73C582.4 58.29 585.26 56.54 589.44 50.92M586.56 60.33C587.79 59.27 588.38 57.82 589.18 57.31M586.56 60.33C587.37 59.4 588.22 58.37 589.18 57.31" stroke="#F5F5F5" stroke-width="0.5" stroke-linecap="round" stroke-linejoin="round" stroke-miterlimit="10" fill="none"/><path d="M427 0C467.58 0.46 506.15-1.46 587 0M427 0C479.09-0.06 529.13 0.93 587 0M587 0C588.79 19.97 588.46 41.36 587 60M587 0C586.91 24.07 587.41 48.56 587 60M587 60C528.74 56.79 471.89 59.68 427 60M587 60C527.6 61.3 468.65 61.05 427 60M427 60C425.01 45.59 425.04 28.32 427 0M427 60C425.99 45.69 425.86 31.69 427 0" stroke="#666666" stroke-linecap="round" stroke-linejoin="round" stroke-miterlimit="10" fill="none"/><g transform="translate(-0.5 -0.5)"><g><text fill="#333333" font-family="Garamond" font-size="14" x="427" y="14">dcat:Resource</text></g></g><path d="M387 140 387 110C387 103.333 390.333 100 397 100L457 100C463.667 100 467 96.6667 467 90L467 68.12" fill="none"/><path d="M467 61.12 470.5 68.12 463.5 68.12Z" fill="none"/><path d="M387 140C387.57 133.16 386.12 124.67 387 110M387 140C386.41 134.05 387.5 127.66 387 110M387 110C386.66 104.8 389.07 100.5 397 100M387 110C387.14 102.89 389.92 100 397 100M397 100C411.1 100.56 430.13 97.87 457 100M397 100C419.5 100 443.03 100.25 457 100M457 100C465.53 98.29 467.5 95.29 467 90M457 100C463.85 101.4 465.01 95.66 467 90M467 90C465.32 86.15 465.86 79.25 467 68.12M467 90C467.35 80.7 466.33 72.7 467 68.12" stroke="#666666" stroke-linecap="round" stroke-linejoin="round" stroke-miterlimit="10" fill="none"/><path d="M467 61.12C468.17 63.02 468.46 64.3 470.5 68.12M467 61.12C467.63 62.69 468.78 64.1 470.5 68.12M470.5 68.12C468.7 68.12 466.4 67.95 463.5 68.12M470.5 68.12C468.5 67.89 466.43 68.47 463.5 68.12M463.5 68.12C464.21 66.26 464.89 65.2 467 61.12M463.5 68.12C464.69 65.57 465.78 63.76 467 61.12" stroke="#666666" stroke-linecap="round" stroke-linejoin="round" stroke-miterlimit="10" fill="none"/><path d="M387 200 387 300C387 306.667 390.333 310 397 310L418.88 310" fill="none"/><path d="M425.88 310 418.88 313.5 418.88 306.5Z" fill="none"/><path d="M387 200C386.2 223.03 386.4 250.88 387 300M387 200C387.97 235.96 388.21 269.49 387 300M387 300C388.06 305.19 390.83 309.75 397 310M387 300C387.54 307.34 391.85 308.86 397 310M397 310C404.98 311.07 409.94 310.33 418.88 310M397 310C405.51 309.54 413.41 309.24 418.88 310" stroke="#666666" stroke-linecap="round" stroke-linejoin="round" stroke-miterlimit="10" fill="none"/><path d="M418.74 306.66C418.74 306.66 418.74 306.66 418.74 306.66M418.74 306.66C418.74 306.66 418.74 306.66 418.74 306.66M419.14 312.3C420.26 311.08 421.63 309.96 422.42 308.53M419.14 312.3C420.14 311.55 420.94 310.42 422.42 308.53" stroke="#666666" stroke-width="0.5" stroke-linecap="round" stroke-linejoin="round" stroke-miterlimit="10" fill="none"/><path d="M425.88 310C423.22 311.57 420.91 312.66 418.88 313.5M425.88 310C424.67 310.55 423.13 311.71 418.88 313.5M418.88 313.5C419.29 311.61 419.02 309.76 418.88 306.5M418.88 313.5C418.55 310.89 418.85 308.92 418.88 306.5M418.88 306.5C420.85 307.89 423.43 308.88 425.88 310M418.88 306.5C421.01 307.64 423.3 308.37 425.88 310" stroke="#666666" stroke-linecap="round" stroke-linejoin="round" stroke-miterlimit="10" fill="none"/><g transform="translate(-0.5 -0.5)"><g><text font-family="Garamond" font-size="14" text-anchor="middle" x="387" y="279">0..n</text></g></g><rect x="307" y="140" width="160" height="60" fill="none"/><path d="M306.69 140.35C306.69 140.35 306.69 140.35 306.69 140.35M306.69 140.35C306.69 140.35 306.69 140.35 306.69 140.35M307.09 146C308.83 144.4 309.75 142.78 312.34 139.96M307.09 146C308.62 144.1 309.62 142.69 312.34 139.96M306.83 152.4C307.97 149.66 311.48 146.8 317.32 140.32M306.83 152.4C308.7 149.94 311.07 146.75 317.32 140.32M307.22 158.04C312.76 153.31 315.51 150.05 322.97 139.93M307.22 158.04C310.43 154.12 314.66 148.13 322.97 139.93M306.96 164.44C309.39 157.89 315.85 152.81 327.95 140.29M306.96 164.44C313.31 157.12 320.6 149.4 327.95 140.29M306.7 170.83C319.25 159.59 329.83 145.34 333.6 139.89M306.7 170.83C315.07 162.48 321.93 153.6 333.6 139.89M307.09 176.48C317.95 160.23 333.62 149.16 338.58 140.25M307.09 176.48C314.82 167.01 322.26 159.6 338.58 140.25M306.83 182.87C320.76 165.25 335.85 150.31 344.23 139.86M306.83 182.87C319.17 169.19 331.07 154.87 344.23 139.86M307.22 188.52C317.43 175.34 329.33 162.12 349.21 140.22M307.22 188.52C316.45 177.39 326.72 165.99 349.21 140.22M306.96 194.92C318.28 180.54 332.52 167.88 354.86 139.82M306.96 194.92C325.59 172.97 345.09 151.15 354.86 139.82M307.36 200.56C324.9 177.06 346 159.2 359.84 140.18M307.36 200.56C324.8 182.06 341.54 161.61 359.84 140.18M313 200.16C330.98 181.06 346.76 161.9 365.49 139.79M313 200.16C325 187.08 337.27 172.69 365.49 139.79M317.99 200.52C327.78 186.17 340.11 173.34 370.47 140.15M317.99 200.52C333.13 184.84 345.95 167.72 370.47 140.15M323.63 200.13C337.24 184.44 348.76 170.39 376.12 139.75M323.63 200.13C342.84 176.32 361.82 154.15 376.12 139.75M328.62 200.49C339.53 188.04 352.52 173.36 381.1 140.11M328.62 200.49C342.56 186 355.52 169.25 381.1 140.11M334.26 200.1C344.22 187.39 356.4 171.47 386.75 139.72M334.26 200.1C349.12 184.39 362.35 166.88 386.75 139.72M339.25 200.46C349.75 186.37 361 173.7 391.73 140.08M339.25 200.46C358.02 180.03 376.08 158.32 391.73 140.08M344.89 200.06C361.19 182.46 374.74 168.31 397.38 139.68M344.89 200.06C364.46 176.94 385.02 154.12 397.38 139.68M349.88 200.42C366.56 184.67 377.06 168.36 402.36 140.04M349.88 200.42C363.68 183.14 378.98 167.14 402.36 140.04M354.87 200.78C368.47 188.58 376.73 174.04 408.01 139.65M354.87 200.78C372 181.97 387.49 163.88 408.01 139.65M360.51 200.39C376.02 182.16 390.87 162.76 412.99 140.01M360.51 200.39C371.33 188.01 383.47 174.48 412.99 140.01M365.5 200.75C381.58 180.98 399.69 162.4 417.98 140.37M365.5 200.75C374.93 187.62 387.46 175.14 417.98 140.37M371.14 200.35C383.85 185.11 396.98 173.2 423.62 139.97M371.14 200.35C382.07 188.76 392.89 174.87 423.62 139.97M376.13 200.71C393.54 178.89 410.99 158.06 428.61 140.34M376.13 200.71C397.56 176.36 418.19 154.14 428.61 140.34M381.77 200.32C397.53 184.19 409.4 167.96 434.25 139.94M381.77 200.32C400.46 178.24 419.33 157.77 434.25 139.94M386.76 200.68C406.03 179.35 423.84 155.77 439.24 140.3M386.76 200.68C396.53 188.67 407.33 176.64 439.24 140.3M392.4 200.28C400.72 187.37 414.07 176.57 444.88 139.91M392.4 200.28C406.19 184.9 419.78 170.71 444.88 139.91M397.39 200.64C409.57 186.99 422.65 173.56 449.87 140.27M397.39 200.64C408.36 186.06 420.81 172.92 449.87 140.27M403.03 200.25C420.99 181.9 437.05 159.38 455.51 139.87M403.03 200.25C419.96 181.51 437.54 161.45 455.51 139.87M408.02 200.61C426.58 182.13 443.89 160.69 460.5 140.23M408.02 200.61C426.16 179.77 444.48 159.58 460.5 140.23M413.66 200.21C429.22 184.42 444.91 166.11 466.14 139.84M413.66 200.21C426.32 184.72 439.01 170.16 466.14 139.84M418.65 200.57C436.46 180.97 453.58 159.16 469.16 142.46M418.65 200.57C432.26 185.21 445.66 170.27 469.16 142.46M424.29 200.18C435.45 188.08 449.73 172.75 469.56 148.1M424.29 200.18C433.98 189.16 443.57 178.79 469.56 148.1M429.28 200.54C446.16 182.63 461.06 163.68 469.3 154.5M429.28 200.54C445.15 181.47 461.75 163.59 469.3 154.5M434.92 200.14C448.03 183.26 463.44 171.32 469.69 160.15M434.92 200.14C442.48 192.58 448.43 184.12 469.69 160.15M439.91 200.5C451.27 187.94 463.19 175.35 469.43 166.54M439.91 200.5C451.81 187.51 461.77 173.54 469.43 166.54M445.55 200.11C451.62 194.23 461.08 183.48 469.17 172.94M445.55 200.11C453.74 190.05 462.46 181.12 469.17 172.94M450.54 200.47C455.99 195.29 461.9 188.97 469.56 178.58M450.54 200.47C457.44 193.1 463.46 185.32 469.56 178.58M456.18 200.08C461.44 192.33 468.41 186.22 469.3 184.98M456.18 200.08C461.45 194.14 466.02 189.77 469.3 184.98M461.17 200.44C464.59 197.78 465.99 194.86 469.69 190.62M461.17 200.44C463.33 197.98 464.91 195.23 469.69 190.62M466.81 200.04C467.75 199.67 468 198.76 469.43 197.02M466.81 200.04C467.39 199.21 468.13 198.61 469.43 197.02" stroke="#F5F5F5" stroke-width="0.5" stroke-linecap="round" stroke-linejoin="round" stroke-miterlimit="10" fill="none"/><path d="M307 140C346.44 140.7 383.84 142.97 467 140M307 140C369.81 139.19 432.94 139.39 467 140M467 140C469.18 164.25 467.71 186.42 467 200M467 140C467.04 162.36 466.44 185.14 467 200M467 200C414.29 198.21 365.57 198.6 307 200M467 200C434.3 201.77 399.83 200.4 307 200M307 200C307.92 177.13 308.48 153.22 307 140M307 200C307.28 176.52 307.31 153.27 307 140" stroke="#666666" stroke-linecap="round" stroke-linejoin="round" stroke-miterlimit="10" fill="none"/><g transform="translate(-0.5 -0.5)"><g><text fill="#333333" font-family="Garamond" font-size="14" x="307" y="154">dcat:Dataset</text></g></g><path d="M627 140 627 110C627 103.333 623.667 100 617 100L557 100C550.333 100 547 96.6667 547 90L547 68.12" fill="none"/><path d="M547 61.12 550.5 68.12 543.5 68.12Z" fill="none"/><path d="M627 140C626.37 132.12 627.75 123.83 627 110M627 140C627.57 132.1 626.23 122.77 627 110M627 110C627.36 103.33 625.29 100.13 617 100M627 110C625.04 101.15 624.22 99.43 617 100M617 100C602.23 100.68 584.42 100.96 557 100M617 100C594.53 100.61 571.26 100.58 557 100M557 100C550.79 98.7 545.99 95.57 547 90M557 100C551.12 99.16 548.24 98.77 547 90M547 90C548.53 83.6 549.05 80.37 547 68.12M547 90C546.01 84.49 546.95 81.88 547 68.12" stroke="#666666" stroke-linecap="round" stroke-linejoin="round" stroke-miterlimit="10" fill="none"/><path d="M547 61.12C547.73 62.64 549.13 64 550.5 68.12M547 61.12C548.36 63.26 548.81 64.86 550.5 68.12M550.5 68.12C548.32 67.58 545.38 68.35 543.5 68.12M550.5 68.12C548.4 68.4 546.82 68.21 543.5 68.12M543.5 68.12C544.55 65.57 546.57 62.39 547 61.12M543.5 68.12C544.59 65.33 546.22 62.8 547 61.12" stroke="#666666" stroke-linecap="round" stroke-linejoin="round" stroke-miterlimit="10" fill="none"/><path d="M547 170 475.12 170" fill="none"/><path d="M468.12 170 475.12 166.5 475.12 173.5Z" fill="none"/><path d="M547 170C530.61 171.82 511.97 171.3 475.12 170M547 170C530.08 170.87 513.77 170.39 475.12 170" stroke="#666666" stroke-linecap="round" stroke-linejoin="round" stroke-miterlimit="10" fill="none"/><path d="M468.43 169.65C468.43 169.65 468.43 169.65 468.43 169.65M468.43 169.65C468.43 169.65 468.43 169.65 468.43 169.65M472.1 171.52C473.42 169.36 474.86 167.46 476.04 166.99M472.1 171.52C472.97 170.64 474.1 169.32 476.04 166.99" stroke="#666666" stroke-width="0.5" stroke-linecap="round" stroke-linejoin="round" stroke-miterlimit="10" fill="none"/><path d="M468.12 170C469.46 168.28 472.19 167.82 475.12 166.5M468.12 170C469.85 169.03 471.98 168.12 475.12 166.5M475.12 166.5C475.01 168.32 474.92 169.41 475.12 173.5M475.12 166.5C475.05 168.38 475.41 170.88 475.12 173.5M475.12 173.5C473.33 173.34 471.77 171.22 468.12 170M475.12 173.5C474 172.7 471.99 172.01 468.12 170" stroke="#666666" stroke-linecap="round" stroke-linejoin="round" stroke-miterlimit="10" fill="none"/><g transform="translate(-0.5 -0.5)"><g><text font-family="Garamond" font-size="14" text-anchor="middle" x="507" y="174">0..n</text></g></g><rect x="547" y="140" width="160" height="60" fill="none"/><path d="M547.05 139.94C547.05 139.94 547.05 139.94 547.05 139.94M547.05 139.94C547.05 139.94 547.05 139.94 547.05 139.94M546.79 146.34C548.02 143.48 551.41 142.39 552.04 140.3M546.79 146.34C547.84 144.64 549.06 143.6 552.04 140.3M547.18 151.98C549.06 148.74 554.5 143.92 557.68 139.91M547.18 151.98C550.24 149.45 551.53 147.45 557.68 139.91M546.92 158.38C552.64 155.02 553.44 151.01 562.67 140.27M546.92 158.38C551.56 153.48 555.03 149.16 562.67 140.27M547.32 164.02C554.45 158.03 559.02 150.43 568.31 139.87M547.32 164.02C552.51 159.36 555.65 153.58 568.31 139.87M547.05 170.42C555.13 158.74 563.79 149.66 573.3 140.23M547.05 170.42C555.96 161.12 562.47 151.11 573.3 140.23M546.79 176.82C559.26 162.66 570.53 149.31 578.94 139.84M546.79 176.82C553.7 167.98 563.44 159.41 578.94 139.84M547.19 182.46C559.34 166.33 571.48 154.97 583.93 140.2M547.19 182.46C558.51 168.33 570.59 156.65 583.93 140.2M546.93 188.86C560.28 172.25 574.4 157.03 589.57 139.8M546.93 188.86C559.49 173.83 572.1 160.92 589.57 139.8M547.32 194.5C561.72 177.48 580.27 157.32 594.56 140.16M547.32 194.5C557.82 182.47 569.17 169.44 594.56 140.16M547.72 200.15C565.68 177.56 585.1 154.35 600.2 139.77M547.72 200.15C566.66 176.28 587.89 154.9 600.2 139.77M552.7 200.51C561.82 188.33 576.59 176.47 605.19 140.13M552.7 200.51C569.38 180.13 586.89 158.36 605.19 140.13M558.35 200.11C576.88 179.27 595.39 158.16 610.83 139.74M558.35 200.11C572.19 185.2 584.62 172.13 610.83 139.74M563.33 200.47C576.13 184.51 587.84 171.1 615.82 140.1M563.33 200.47C577.31 183.63 590.31 169.13 615.82 140.1M568.98 200.08C580.34 185.39 594.12 171.24 621.46 139.7M568.98 200.08C581.87 186.06 592.22 171.91 621.46 139.7M573.96 200.44C591.21 181.91 611.36 159.96 626.45 140.06M573.96 200.44C589.93 181.81 603.55 165.45 626.45 140.06M579.61 200.04C588.13 188.98 601.4 175.41 632.09 139.67M579.61 200.04C599.98 176.57 621.65 151.85 632.09 139.67M584.59 200.4C595.54 187.18 605.83 176.08 637.08 140.03M584.59 200.4C600.28 183.24 615.78 163.96 637.08 140.03M589.58 200.76C608.21 179.79 624.99 157.24 642.72 139.63M589.58 200.76C602.87 186.58 613.89 172.44 642.72 139.63M595.22 200.37C609.94 185.39 621.22 169.91 647.71 139.99M595.22 200.37C614.74 178.21 635.94 154.61 647.71 139.99M600.21 200.73C618.6 182.41 635.16 161.69 652.69 140.35M600.21 200.73C617.65 180.9 632.99 162.04 652.69 140.35M605.85 200.33C621.09 182.85 636.11 162.73 658.34 139.96M605.85 200.33C619.19 185.29 632.04 169.38 658.34 139.96M610.84 200.69C631.27 175.1 652.57 154.01 663.32 140.32M610.84 200.69C626.83 183.59 640.1 168.24 663.32 140.32M616.48 200.3C636.55 179.24 657.35 152.45 668.97 139.92M616.48 200.3C629.91 185.66 643.89 170.33 668.97 139.92M621.47 200.66C640.17 180.32 656.26 159.13 673.96 140.28M621.47 200.66C632.01 188.25 644.35 175.35 673.96 140.28M627.11 200.27C635.87 188.29 649.02 176.49 679.6 139.89M627.11 200.27C641.01 182.75 656.69 165.58 679.6 139.89M632.1 200.63C648.76 182.37 663.58 163.8 684.59 140.25M632.1 200.63C645.88 185.84 659.3 169.5 684.59 140.25M637.74 200.23C650.93 187.15 658.46 174.78 690.23 139.85M637.74 200.23C655.54 179.81 672.51 160.67 690.23 139.85M642.73 200.59C652 185.52 667.22 173.21 695.22 140.21M642.73 200.59C656.26 184.4 671.16 168.66 695.22 140.21M648.37 200.2C663.53 181 681.62 164.81 700.86 139.82M648.37 200.2C665.8 179.24 683.22 159.99 700.86 139.82M653.36 200.56C671.35 181.05 690.92 155.7 705.85 140.18M653.36 200.56C668.33 181.4 685.25 162.84 705.85 140.18M659 200.16C675.49 178.48 694.77 159.67 709.52 142.05M659 200.16C675.16 182.9 691.04 163.75 709.52 142.05M663.99 200.52C680.73 184.12 695.25 164.98 709.26 148.45M663.99 200.52C679.67 182.13 694.8 165.32 709.26 148.45M669.63 200.13C680.25 185.92 691.22 176.34 709.65 154.09M669.63 200.13C678.54 189.37 687.95 178.95 709.65 154.09M674.62 200.49C690.35 183.45 703.01 169.1 709.39 160.49M674.62 200.49C688.28 186.4 700.06 170.77 709.39 160.49M680.26 200.09C691.34 185.49 702.97 174.06 709.13 166.89M680.26 200.09C689.66 189.49 697.42 178.1 709.13 166.89M685.25 200.45C692.53 194.31 698.62 186.11 709.53 172.53M685.25 200.45C693.16 191.65 699.39 184.51 709.53 172.53M690.89 200.06C694.49 195.17 697.28 189.08 709.26 178.93M690.89 200.06C697.93 191.53 704.64 184.1 709.26 178.93M695.88 200.42C700.38 196.36 704.65 194.27 709.66 184.57M695.88 200.42C699.64 197.33 702 194.5 709.66 184.57M700.87 200.78C703.48 197.14 706.36 195.91 709.4 190.97M700.87 200.78C702.41 198.14 705.31 195.7 709.4 190.97M706.51 200.38C706.88 199.3 708.11 199.13 709.14 197.37M706.51 200.38C707.44 199.39 708.59 198.23 709.14 197.37" stroke="#F5F5F5" stroke-width="0.5" stroke-linecap="round" stroke-linejoin="round" stroke-miterlimit="10" fill="none"/><path d="M547 140C585.3 137.74 625.52 140.21 707 140M547 140C588.52 138.43 630.75 137.86 707 140M707 140C708.37 152.53 705.76 167.47 707 200M707 140C706.37 160.64 706.67 181.73 707 200M707 200C663.83 199.63 619.26 197.52 547 200M707 200C667 200.23 627 201.75 547 200M547 200C545.63 180.67 546.72 162.13 547 140M547 200C547.37 179.34 547.57 158.84 547 140" stroke="#666666" stroke-linecap="round" stroke-linejoin="round" stroke-miterlimit="10" fill="none"/><g transform="translate(-0.5 -0.5)"><g><text fill="#333333" font-family="Garamond" font-size="14" x="547" y="154">dcat:DataService</text></g></g><path d="M587 310 617 310C623.667 310 627 306.667 627 300L627 208.12" fill="none"/><path d="M627 201.12 630.5 208.12 623.5 208.12Z" fill="none"/><path d="M587 310C594.5 310.46 603.72 310.13 617 310M587 310C596.29 309 604.57 309.73 617 310M617 310C622.13 309.58 625.26 305.68 627 300M617 310C624.6 311.8 625.85 304.39 627 300M627 300C626.87 271.29 624.48 238.07 627 208.12M627 300C626.23 269.29 625.67 236.94 627 208.12" stroke="#666666" stroke-linecap="round" stroke-linejoin="round" stroke-miterlimit="10" fill="none"/><path d="M626.82 201.33C626.82 201.33 626.82 201.33 626.82 201.33M626.82 201.33C626.82 201.33 626.82 201.33 626.82 201.33M625.24 209.24C625.83 208.51 627.48 206.95 629.18 204.71M625.24 209.24C625.78 208.38 627.07 207.11 629.18 204.71" stroke="#666666" stroke-width="0.5" stroke-linecap="round" stroke-linejoin="round" stroke-miterlimit="10" fill="none"/><path d="M627 201.12C628.58 202.59 629.38 203.88 630.5 208.12M627 201.12C627.73 203.13 628.73 205.52 630.5 208.12M630.5 208.12C627.27 208.29 624.73 208.37 623.5 208.12M630.5 208.12C628.85 207.85 626.82 208.2 623.5 208.12M623.5 208.12C625.29 205.7 625.45 202.84 627 201.12M623.5 208.12C624.41 205.86 625.69 204.12 627 201.12" stroke="#666666" stroke-linecap="round" stroke-linejoin="round" stroke-miterlimit="10" fill="none"/><g transform="translate(-0.5 -0.5)"><g><text font-family="Garamond" font-size="14" text-anchor="middle" x="627" y="279">0..1</text></g></g><rect x="427" y="280" width="160" height="60" fill="none"/><path d="M427.3 279.65C427.3 279.65 427.3 279.65 427.3 279.65M427.3 279.65C427.3 279.65 427.3 279.65 427.3 279.65M427.04 286.05C428.18 284.74 429.8 282.18 432.29 280.01M427.04 286.05C429.46 283.34 431.14 281.45 432.29 280.01M426.78 292.45C429.4 288.7 433.55 285.11 437.28 280.37M426.78 292.45C431.27 287.41 435.19 282.59 437.28 280.37M427.18 298.09C433.08 295.79 435.92 291.02 442.92 279.98M427.18 298.09C434.02 290.57 439.89 284.3 442.92 279.98M426.91 304.49C434.75 298.63 441.43 288.5 447.91 280.34M426.91 304.49C433.14 295.65 440.33 288.97 447.91 280.34M427.31 310.13C435.17 302.24 442.17 294.04 453.55 279.94M427.31 310.13C436.93 299.65 445.28 290.3 453.55 279.94M427.05 316.53C437.35 305.04 451.71 289.97 458.54 280.3M427.05 316.53C435.55 306.69 443.25 299.33 458.54 280.3M426.79 322.93C436.77 311.02 450.43 294.71 464.18 279.91M426.79 322.93C438.34 309.87 449.01 296.35 464.18 279.91M427.18 328.57C444.24 309.01 460.16 292.28 469.17 280.27M427.18 328.57C442.7 311.22 457.26 293.26 469.17 280.27M426.92 334.97C438.17 324.88 447.89 311.74 474.81 279.87M426.92 334.97C439.19 319.47 452.27 305.87 474.81 279.87M427.31 340.61C436.42 327.02 447.66 318.53 479.8 280.23M427.31 340.61C440.47 325.44 453.68 311.21 479.8 280.23M432.96 340.22C448.92 322.88 465.17 302.25 485.44 279.84M432.96 340.22C445.03 325.67 459.28 310.59 485.44 279.84M437.94 340.58C450.73 322.38 468.92 309.05 490.43 280.2M437.94 340.58C450.49 327.38 460.54 314.37 490.43 280.2M443.59 340.18C455.56 329 467.48 316.22 496.07 279.8M443.59 340.18C462.82 318.23 480.35 297.32 496.07 279.8M448.57 340.54C464.38 324.67 478.96 307.05 501.06 280.16M448.57 340.54C468.92 317.97 489.15 294.34 501.06 280.16M454.22 340.15C467.04 322.81 480.66 310.91 506.7 279.77M454.22 340.15C472.51 319.54 488.5 300.33 506.7 279.77M459.2 340.51C481.46 315.35 499.23 292.79 511.69 280.13M459.2 340.51C471.48 326.05 484.26 312.42 511.69 280.13M464.85 340.11C482.15 319.19 503.67 295.07 517.33 279.73M464.85 340.11C475.44 326.9 485.88 315.17 517.33 279.73M469.83 340.47C480.68 326.88 492.78 314.68 522.32 280.1M469.83 340.47C489.59 316.59 510.51 294.6 522.32 280.1M475.48 340.08C491.45 323.18 501.9 306.61 527.96 279.7M475.48 340.08C489.08 323.37 503.68 306.1 527.96 279.7M480.46 340.44C496.53 318.02 514.8 299.99 532.95 280.06M480.46 340.44C493.24 326.28 505.28 312.16 532.95 280.06M486.11 340.04C500.5 325.88 512.42 308.23 538.59 279.67M486.11 340.04C502.55 321.09 517.73 303.75 538.59 279.67M491.09 340.4C511.53 316.54 530.51 294.34 543.58 280.03M491.09 340.4C508.93 319.78 526.66 298.97 543.58 280.03M496.08 340.76C508.47 327.31 522.26 314.46 549.22 279.63M496.08 340.76C512.99 321.53 529 304.79 549.22 279.63M501.72 340.37C522.17 314.77 542.47 292.62 554.21 279.99M501.72 340.37C516.6 325.55 528.91 308.13 554.21 279.99M506.71 340.73C520.65 327.07 535.63 310.99 559.2 280.35M506.71 340.73C525.93 319.7 544.5 297.39 559.2 280.35M512.35 340.33C525.65 325.85 535.44 311.61 564.84 279.96M512.35 340.33C527.32 324.15 540.57 309.65 564.84 279.96M517.34 340.69C538.03 316.1 558.5 292.74 569.83 280.32M517.34 340.69C530.67 325.46 541.66 312.39 569.83 280.32M522.98 340.3C538.06 320.42 554.94 302.25 575.47 279.92M522.98 340.3C535.1 326.65 545.34 313.24 575.47 279.92M527.97 340.66C540.92 325.79 555.8 306.86 580.46 280.28M527.97 340.66C544.68 319.58 563.2 299.28 580.46 280.28M533.61 340.26C546.32 324.07 559.28 311.75 586.1 279.89M533.61 340.26C552.88 318.49 572.05 295.92 586.1 279.89M538.6 340.62C556.82 320.62 574.48 300.56 589.77 281.76M538.6 340.62C558.7 319.2 577.31 297.55 589.77 281.76M544.24 340.23C554.56 326.84 564.25 318.31 589.51 288.16M544.24 340.23C556.85 326.87 568.47 312.06 589.51 288.16M549.23 340.59C565.58 324.07 580.62 306.66 589.25 294.55M549.23 340.59C560.25 328.94 570.49 316.78 589.25 294.55M554.87 340.2C562.27 330.32 569.23 321.56 589.65 300.2M554.87 340.2C566.88 327.59 577.53 314.79 589.65 300.2M559.86 340.56C564.59 334.13 570.55 326.05 589.38 306.59M559.86 340.56C567.15 331.86 575.13 322.57 589.38 306.59M565.5 340.16C569.65 334.63 576.04 329.34 589.12 312.99M565.5 340.16C570.21 335.05 575.58 328.11 589.12 312.99M570.49 340.52C576.34 331.57 584.12 324.99 589.52 318.63M570.49 340.52C574.77 336.64 578.85 331.39 589.52 318.63M576.13 340.13C578.16 337.13 586.03 332.4 589.26 325.03M576.13 340.13C578.71 336.93 583.22 330.93 589.26 325.03M581.12 340.49C583.11 338.31 584.88 336.15 589.65 330.68M581.12 340.49C583.54 337.66 585.16 335.53 589.65 330.68M586.76 340.09C587.36 339.09 587.98 338.07 589.39 337.07M586.76 340.09C587.46 339.14 588.49 338.02 589.39 337.07" stroke="#F5F5F5" stroke-width="0.5" stroke-linecap="round" stroke-linejoin="round" stroke-miterlimit="10" fill="none"/><path d="M427 280C468.16 281.97 507.2 280.65 587 280M427 280C481.24 280.88 534.56 281.53 587 280M587 280C587.55 296.81 587.8 308.53 587 340M587 280C585.71 298.93 586.9 318.31 587 340M587 340C549.38 341.05 508.94 340.43 427 340M587 340C539.69 340.69 494.18 341.09 427 340M427 340C428.54 324.21 426.16 307.03 427 280M427 340C426.66 322.17 427.03 304.42 427 280" stroke="#666666" stroke-linecap="round" stroke-linejoin="round" stroke-miterlimit="10" fill="none"/><g transform="translate(-0.5 -0.5)"><g><text fill="#333333" font-family="Garamond" font-size="14" x="427" y="294">dcat:Distribution</text></g></g><rect x="147" y="0" width="160" height="60" fill="none"/><path d="M146.9 0.12C146.9 0.12 146.9 0.12 146.9 0.12M146.9 0.12C146.9 0.12 146.9 0.12 146.9 0.12M147.29 5.76C148.74 3.99 149.12 2.31 152.54-0.27M147.29 5.76C148.96 3.77 150.43 2.2 152.54-0.27M147.03 12.16C152.2 7 155.26 3.12 157.53 0.09M147.03 12.16C150.19 8.73 152.96 4.8 157.53 0.09M146.77 18.56C149.14 13.16 156.02 9.52 163.17-0.31M146.77 18.56C152.77 10.53 159.72 3.39 163.17-0.31M147.16 24.2C154.82 14.16 164.02 6.79 168.16 0.05M147.16 24.2C154.48 15.79 160.18 7.75 168.16 0.05M146.9 30.6C157.49 19.85 163.4 9.97 173.8-0.34M146.9 30.6C154.34 21.05 162.38 13.08 173.8-0.34M147.29 36.24C157.69 25.74 167.22 12.81 178.79 0.02M147.29 36.24C156.48 26.4 164.38 16.16 178.79 0.02M147.03 42.64C157.03 29.72 167.58 17.01 183.77 0.38M147.03 42.64C159.62 28.96 171.29 14.39 183.77 0.38M146.77 49.04C153.84 37.97 166.75 30.42 189.42-0.02M146.77 49.04C162.2 32 177.7 15.18 189.42-0.02M147.17 54.68C165.5 36.19 178.16 17.07 194.4 0.34M147.17 54.68C162.09 36.84 175.75 20 194.4 0.34M147.56 60.32C168.16 37.68 188.22 13.21 200.05-0.05M147.56 60.32C164.65 39.89 181.66 20.08 200.05-0.05M152.55 60.68C167.56 42.72 184.64 23.76 205.03 0.31M152.55 60.68C172.8 38.59 190.79 16.25 205.03 0.31M158.19 60.29C176.31 38.35 196.22 19.01 210.68-0.09M158.19 60.29C178.21 37.59 198.8 12.72 210.68-0.09M163.18 60.65C175.83 45.92 187.42 31.68 215.66 0.27M163.18 60.65C180.7 40.93 196.22 21.59 215.66 0.27M168.82 60.26C178.53 48.81 191.36 37.31 221.31-0.12M168.82 60.26C178.9 47.55 190.44 35.28 221.31-0.12M173.81 60.62C193.44 39.66 208.64 19.02 226.29 0.24M173.81 60.62C192.02 40.25 209.93 18.17 226.29 0.24M179.45 60.22C201.33 36.9 218.96 11.22 231.94-0.16M179.45 60.22C194.33 43.01 207.3 27.14 231.94-0.16M184.44 60.58C201.77 42.43 216.34 26.3 236.92 0.2M184.44 60.58C198.85 41.69 214.97 24.54 236.92 0.2M190.08 60.19C206.33 43.81 221.3 23.96 242.57-0.19M190.08 60.19C202.14 46.51 214.09 33.91 242.57-0.19M195.07 60.55C213.52 38.6 235.54 16.98 247.55 0.17M195.07 60.55C212.8 38.55 233.48 16.96 247.55 0.17M200.71 60.15C214.31 45.49 227.88 25.47 253.2-0.22M200.71 60.15C213.55 44.75 227.85 29.81 253.2-0.22M205.7 60.51C220.21 46.19 231.57 31.76 258.18 0.14M205.7 60.51C217.24 46.92 229.74 32.29 258.18 0.14M211.34 60.12C224.31 43.84 239.79 30.16 263.83-0.26M211.34 60.12C228.53 39.6 247.86 18.98 263.83-0.26M216.33 60.48C237.97 34.92 258.54 12.07 268.81 0.1M216.33 60.48C234.4 39.92 251.51 19.86 268.81 0.1M221.97 60.08C240.07 41.91 256.89 21.88 274.46-0.29M221.97 60.08C234.21 46.53 245.3 33.9 274.46-0.29M226.96 60.44C245.98 41.55 262.09 22.12 279.44 0.07M226.96 60.44C246.24 37.65 266.12 15.85 279.44 0.07M232.6 60.05C249.32 42.75 262.86 22.89 285.09-0.33M232.6 60.05C251.35 37.59 270.96 16.02 285.09-0.33M237.59 60.41C256 36.26 276.6 12.54 290.07 0.03M237.59 60.41C248.47 48.33 259.79 34.18 290.07 0.03M242.58 60.77C256.04 47.97 267.85 30.14 295.72-0.36M242.58 60.77C255.44 45.33 269.26 30.11 295.72-0.36M248.22 60.37C258.67 46.22 272.8 30.55 300.7 0M248.22 60.37C268.39 38.8 287.67 14.81 300.7 0M253.21 60.73C265.66 45.5 279.67 29.88 305.69 0.36M253.21 60.73C267.75 43.39 282.25 27.1 305.69 0.36M258.85 60.34C271.37 44.88 285.35 31.34 309.37 2.23M258.85 60.34C276.59 39.11 293.63 19.72 309.37 2.23M263.84 60.7C278.64 45.15 293.08 28.03 309.76 7.87M263.84 60.7C276.99 47.29 288.35 31.64 309.76 7.87M269.48 60.31C286.18 43.27 301 26.12 309.5 14.27M269.48 60.31C281.46 46.31 293.62 30.58 309.5 14.27M274.47 60.67C284.79 51.44 293.39 40.21 309.24 20.67M274.47 60.67C286.21 46.39 299.61 32.32 309.24 20.67M280.11 60.27C290.17 48.62 300.68 39.05 309.63 26.31M280.11 60.27C291.1 46.98 300.87 34.84 309.63 26.31M285.1 60.63C288.41 55.39 295.88 51.3 309.37 32.71M285.1 60.63C291.08 53.06 298.12 47.37 309.37 32.71M290.74 60.24C295.27 51.98 303.27 46.97 309.77 38.35M290.74 60.24C296.84 54.2 301.75 46.72 309.77 38.35M295.73 60.6C297.78 54.6 303.5 53.43 309.5 44.75M295.73 60.6C298.56 57.54 302.08 53.55 309.5 44.75M301.37 60.2C304.47 57.52 306.57 53.84 309.24 51.15M301.37 60.2C303.32 57.99 304.78 55.35 309.24 51.15M306.36 60.56C307.4 59.47 308.25 58.38 309.64 56.79M306.36 60.56C307.26 59.31 308.5 57.8 309.64 56.79" stroke="#F5F5F5" stroke-width="0.5" stroke-linecap="round" stroke-linejoin="round" stroke-miterlimit="10" fill="none"/><path d="M147 0C182.24-0.76 217.48 1.28 307 0M147 0C208.13 1.99 270.03 1.17 307 0M307 0C307.14 16.47 306.18 36.88 307 60M307 0C306.55 21.92 307.18 45.4 307 60M307 60C247.19 56.67 187.41 58.15 147 60M307 60C253.1 60.57 200.57 61.25 147 60M147 60C145.48 39.21 147.7 21.26 147 0M147 60C147.72 44.04 147.49 30.03 147 0" stroke="#666666" stroke-linecap="round" stroke-linejoin="round" stroke-miterlimit="10" fill="none"/><g transform="translate(-0.5 -0.5)"><g><text fill="#333333" font-family="Garamond" font-size="14" x="147" y="14">donl:LegalFoundation</text></g></g><path d="M227 170 298.88 170" fill="none"/><path d="M305.88 170 298.88 173.5 298.88 166.5Z" fill="none"/><path d="M227 170C243.72 170.42 256.33 169.06 298.88 170M227 170C242.39 170.19 255.68 171.03 298.88 170" stroke="#666666" stroke-linecap="round" stroke-linejoin="round" stroke-miterlimit="10" fill="none"/><path d="M305.88 170C304.79 170.78 302.11 171.01 298.88 173.5M305.88 170C304.75 170.49 302.83 171.53 298.88 173.5M298.88 173.5C298.39 172.48 298.26 170.55 298.88 166.5M298.88 173.5C299.22 171.5 298.98 169.36 298.88 166.5M298.88 166.5C301.41 167.97 302.3 168.07 305.88 170M298.88 166.5C300.35 167.54 302.09 168.17 305.88 170" stroke="#666666" stroke-linecap="round" stroke-linejoin="round" stroke-miterlimit="10" fill="none"/><path d="M107 200 107 273.63" fill="none"/><path d="M107 278.88 103.5 271.88 107 273.63 110.5 271.88Z" fill="none"/><path d="M107 200C108.68 216.99 106.18 232.18 107 273.63M107 200C107.32 216.35 106.75 232.96 107 273.63" stroke="#666666" stroke-linecap="round" stroke-linejoin="round" stroke-miterlimit="10" fill="none"/><path d="M103.22 272.2C103.22 272.2 103.22 272.2 103.22 272.2M103.22 272.2C103.22 272.2 103.22 272.2 103.22 272.2M105.58 275.58C106.14 275.09 106.56 274.48 106.89 274.07M105.58 275.58C105.94 275.22 106.24 274.8 106.89 274.07" stroke="#666666" stroke-width="0.5" stroke-linecap="round" stroke-linejoin="round" stroke-miterlimit="10" fill="none"/><path d="M107 278.88C105.86 276.81 104.51 273.83 103.5 271.88M107 278.88C106.02 276.58 104.28 273.93 103.5 271.88M103.5 271.88C105.06 272.22 105.85 272.94 107 273.63M103.5 271.88C104.85 272.66 105.87 273.32 107 273.63M107 273.63C107.87 272.75 109.43 272.89 110.5 271.88M107 273.63C108.13 273.08 109.29 272.32 110.5 271.88M110.5 271.88C109.99 274.51 108.79 276.69 107 278.88M110.5 271.88C109.46 273.57 108.51 275.63 107 278.88" stroke="#666666" stroke-linecap="round" stroke-linejoin="round" stroke-miterlimit="10" fill="none"/><g transform="translate(-0.5 -0.5)"><g><text font-family="Garamond" font-size="14" text-anchor="middle" x="107" y="244">0..n</text></g></g><path d="M67 170 17 170C10.3333 170 7 173.333 7 180L7 410C7 416.667 10.3333 420 17 420L777 420C783.667 420 787 416.667 787 410L787 165C787 158.333 783.667 155 777 155L713.37 155" fill="none"/><path d="M708.12 155 715.12 151.5 713.37 155 715.12 158.5Z" fill="none"/><path d="M67 170C54.45 172.33 45.58 172.17 17 170M67 170C55.23 171.26 43.64 169.4 17 170M17 170C8.61 169.9 7.07 173.78 7 180M17 170C8.24 171.42 7.84 174.66 7 180M7 180C6.66 256.94 7.84 329.61 7 410M7 180C8.6 232.49 8.17 285.19 7 410M7 410C6.81 416.87 11.55 418.71 17 420M7 410C8.45 416.72 12.41 419.65 17 420M17 420C314.35 422.43 611.04 422.39 777 420M17 420C249.27 418.75 482.01 418.5 777 420M777 420C783.33 419.97 786.76 417.39 787 410M777 420C784.33 418.39 789.12 416.13 787 410M787 410C786.87 325.93 787.52 245.32 787 165M787 410C788.91 357.26 787.91 303.34 787 165M787 165C785.51 157.2 784.15 156.9 777 155M787 165C785.13 159.1 785.85 156.64 777 155M777 155C760.63 156.44 749.57 153.31 713.37 155M777 155C756.78 154.15 736.73 154.27 713.37 155" stroke="#666666" stroke-linecap="round" stroke-linejoin="round" stroke-miterlimit="10" fill="none"/><path d="M707.92 155.23C707.92 155.23 707.92 155.23 707.92 155.23M707.92 155.23C707.92 155.23 707.92 155.23 707.92 155.23M711.59 157.1C712.08 156.34 712.62 156.24 713.56 154.84M711.59 157.1C712.32 156.13 713.13 155.43 713.56 154.84" stroke="#666666" stroke-width="0.5" stroke-linecap="round" stroke-linejoin="round" stroke-miterlimit="10" fill="none"/><path d="M708.12 155C709.03 154.23 711.21 153.04 715.12 151.5M708.12 155C710.47 153.69 712.59 152.89 715.12 151.5M715.12 151.5C714.63 152.58 713.74 154.3 713.37 155M715.12 151.5C714.82 152.34 714.3 153.03 713.37 155M713.37 155C713.95 156.16 714.7 157.53 715.12 158.5M713.37 155C713.88 155.7 714.31 156.47 715.12 158.5M715.12 158.5C712.97 157.33 712.77 157.75 708.12 155M715.12 158.5C712.32 157 710.18 156.34 708.12 155" stroke="#666666" stroke-linecap="round" stroke-linejoin="round" stroke-miterlimit="10" fill="none"/><g transform="translate(-0.5 -0.5)"><g><text font-family="Garamond" font-size="14" text-anchor="middle" x="415" y="424">0..n</text></g></g><path d="M187 140 187 110C187 103.333 190.333 100 197 100L337 100C343.667 100 347 103.333 347 110L347 133.63" fill="none"/><path d="M347 138.88 343.5 131.88 347 133.63 350.5 131.88Z" fill="none"/><path d="M187 140C188.08 132.62 188.16 126.33 187 110M187 140C187.51 133 186.32 127.38 187 110M187 110C188.73 102.88 189.74 100.25 197 100M187 110C189.27 103.3 189.4 98.02 197 100M197 100C240.68 100.4 284.26 102.7 337 100M197 100C253.27 100.36 308.98 98.44 337 100M337 100C344.58 101.04 346.86 104.2 347 110M337 100C344.75 101.44 346.67 102.41 347 110M347 110C346.2 117.51 348.04 125.8 347 133.63M347 110C346.26 116.81 346.29 122.02 347 133.63" stroke="#666666" stroke-linecap="round" stroke-linejoin="round" stroke-miterlimit="10" fill="none"/><path d="M343.8 131.54C343.8 131.54 343.8 131.54 343.8 131.54M343.8 131.54C343.8 131.54 343.8 131.54 343.8 131.54M345.51 135.67C346.31 135.1 347.03 133.8 347.47 133.41M345.51 135.67C345.8 135.16 346.29 134.66 347.47 133.41" stroke="#666666" stroke-width="0.5" stroke-linecap="round" stroke-linejoin="round" stroke-miterlimit="10" fill="none"/><path d="M347 138.88C345.93 136.67 345.01 134 343.5 131.88M347 138.88C346.24 137.66 345.74 136.32 343.5 131.88M343.5 131.88C344.59 132.76 345.32 132.78 347 133.63M343.5 131.88C344.77 132.63 345.79 133.28 347 133.63M347 133.63C348.1 133.25 348.62 132.8 350.5 131.88M347 133.63C347.65 133.12 348.34 132.73 350.5 131.88M350.5 131.88C349.38 133.55 347.81 135.9 347 138.88M350.5 131.88C349.2 134.22 347.59 137.21 347 138.88" stroke="#666666" stroke-linecap="round" stroke-linejoin="round" stroke-miterlimit="10" fill="none"/><g transform="translate(-0.5 -0.5)"><g><text font-family="Garamond" font-size="14" text-anchor="middle" x="267" y="104">0..n</text></g></g><rect x="67" y="140" width="160" height="60" fill="none"/><path d="M66.99 140.01C66.99 140.01 66.99 140.01 66.99 140.01M66.99 140.01C66.99 140.01 66.99 140.01 66.99 140.01M66.73 146.41C67.7 144.92 68.78 143.91 71.98 140.37M66.73 146.41C68.12 144.92 69.21 144.07 71.98 140.37M67.12 152.05C71.67 148.09 73.27 145.89 77.62 139.98M67.12 152.05C69.2 148.45 73.02 145.31 77.62 139.98M66.86 158.45C69.06 155.68 75.87 150.72 82.61 140.34M66.86 158.45C71.11 152.73 76.29 147.22 82.61 140.34M67.26 164.09C71.64 155.57 80.86 151.97 88.25 139.94M67.26 164.09C74.45 156.58 82.04 147.57 88.25 139.94M66.99 170.49C78.19 157.55 85.79 147.64 93.24 140.3M66.99 170.49C75.68 160.81 85.22 150.37 93.24 140.3M66.73 176.89C76.78 166.9 85.19 153.73 98.88 139.91M66.73 176.89C74.87 166.47 85.21 156.07 98.88 139.91M67.13 182.53C73.23 175.26 82.41 165.12 103.87 140.27M67.13 182.53C79.78 168.21 90.23 156.44 103.87 140.27M66.87 188.93C80.85 175.41 93.84 160.28 109.51 139.87M66.87 188.93C78.14 175.37 91.5 159.71 109.51 139.87M67.26 194.57C81.57 180.33 93.75 164.69 114.5 140.23M67.26 194.57C85.36 174.21 102.13 152.61 114.5 140.23M67.66 200.22C79.82 186.43 90.01 171.33 120.14 139.84M67.66 200.22C80.46 185.1 95.94 169.53 120.14 139.84M72.64 200.58C89.64 180.38 107.19 159.95 125.13 140.2M72.64 200.58C92.97 177.01 112.95 153.99 125.13 140.2M78.29 200.18C88.9 186.48 100.17 174.71 130.77 139.8M78.29 200.18C95.72 179.98 115.52 159.2 130.77 139.8M83.27 200.54C94.29 190.31 106.28 177.34 135.76 140.16M83.27 200.54C97.62 182.67 113.68 164.6 135.76 140.16M88.92 200.15C104.73 185.27 119.14 166.84 141.4 139.77M88.92 200.15C106.61 179.36 125.42 158.21 141.4 139.77M93.9 200.51C112.39 178.92 133.04 158.3 146.39 140.13M93.9 200.51C103.84 187.31 116.01 175.61 146.39 140.13M99.55 200.11C117.47 178.84 135.13 159.35 152.03 139.74M99.55 200.11C118.42 177.85 136.61 155.98 152.03 139.74M104.53 200.47C122.86 179.01 145.41 152.9 157.02 140.1M104.53 200.47C120.48 182.47 136.96 162.33 157.02 140.1M110.18 200.08C121.8 186.91 134.37 171.17 162.66 139.7M110.18 200.08C128.19 179.8 145.75 161.21 162.66 139.7M115.16 200.44C124.42 189.7 138.28 177.95 167.65 140.06M115.16 200.44C132.77 180.32 150.76 159.32 167.65 140.06M120.81 200.04C134.96 181.19 151.95 162.54 173.29 139.67M120.81 200.04C136.81 182.86 151.01 165.32 173.29 139.67M125.79 200.4C145.1 179.62 164.79 158.03 178.28 140.03M125.79 200.4C143.13 180.98 160.29 161.5 178.28 140.03M130.78 200.76C151.73 175.57 173.3 155.32 183.92 139.63M130.78 200.76C146.57 183.08 160.49 165.39 183.92 139.63M136.42 200.37C151.67 183.35 164.44 164.65 188.91 139.99M136.42 200.37C149.78 185.17 162.07 170.81 188.91 139.99M141.41 200.73C153.69 185.16 168.45 171.29 193.89 140.35M141.41 200.73C157.13 180.36 174.15 162.7 193.89 140.35M147.05 200.33C159.54 188.07 168.8 172.14 199.54 139.96M147.05 200.33C164.08 179.54 181.23 159.54 199.54 139.96M152.04 200.69C169.74 181.82 187.71 162.53 204.53 140.32M152.04 200.69C171.97 177.44 191.23 155.55 204.53 140.32M157.68 200.3C175.31 181.29 192.81 159.71 210.17 139.92M157.68 200.3C167.72 187.57 179.58 173.5 210.17 139.92M162.67 200.66C177.09 185.46 189.56 172.17 215.16 140.28M162.67 200.66C181.05 178.42 197.86 157.96 215.16 140.28M168.31 200.27C187.64 177.65 209.85 152.4 220.8 139.89M168.31 200.27C187.04 178.45 206.52 156.35 220.8 139.89M173.3 200.63C185.69 189 196.97 175.37 225.79 140.25M173.3 200.63C193.23 178.04 214.22 153.75 225.79 140.25M178.94 200.23C191.65 184.63 201.96 173.09 229.46 142.12M178.94 200.23C190.81 184.84 204.72 170.64 229.46 142.12M183.93 200.59C197.68 183.99 211.32 169.91 229.2 148.52M183.93 200.59C199.82 183.05 215.04 165.16 229.2 148.52M189.57 200.2C205.74 184.55 220.69 164.94 229.59 154.16M189.57 200.2C205.62 183.21 221.43 166 229.59 154.16M194.56 200.56C206.92 189.64 218.03 173.6 229.33 160.56M194.56 200.56C202.99 189.25 212.15 178.82 229.33 160.56M200.2 200.16C209.54 187.27 219.99 175.41 229.73 166.2M200.2 200.16C206.57 191.17 214.37 183.71 229.73 166.2M205.19 200.52C211.38 190.1 220.58 181.94 229.46 172.6M205.19 200.52C212.46 192.41 220.93 183.21 229.46 172.6M210.83 200.13C215.81 197.03 217.71 192.31 229.2 179M210.83 200.13C217.87 193.1 224.42 184.05 229.2 179M215.82 200.49C221.34 196.13 226.65 189.24 229.6 184.64M215.82 200.49C220.96 195.07 225.13 190.34 229.6 184.64M221.46 200.09C223.25 198.01 225.68 195.04 229.34 191.04M221.46 200.09C223.65 197.54 226.35 195.46 229.34 191.04M226.45 200.45C228.07 198.57 229.38 197.34 229.73 196.68M226.45 200.45C227.35 199.81 227.79 198.89 229.73 196.68" stroke="#F5F5F5" stroke-width="0.5" stroke-linecap="round" stroke-linejoin="round" stroke-miterlimit="10" fill="none"/><path d="M67 140C99.96 140.52 136.85 138.96 227 140M67 140C119.56 138.49 173.65 140.1 227 140M227 140C225.52 161.03 226.27 182.99 227 200M227 140C226.01 160.49 226.44 180.57 227 200M227 200C178.29 199.51 130.78 199.99 67 200M227 200C192.49 201.49 158.92 201.95 67 200M67 200C66.11 186.28 65.38 175.07 67 140M67 200C67.1 179.69 67.2 157.18 67 140" stroke="#666666" stroke-linecap="round" stroke-linejoin="round" stroke-miterlimit="10" fill="none"/><g transform="translate(-0.5 -0.5)"><g><text fill="#333333" font-family="Garamond" font-size="14" x="67" y="154">dcat:Catalog</text></g></g><path d="M227 310 337 310C343.667 310 347 306.667 347 300L347 206.37" fill="none"/><path d="M347 201.12 350.5 208.12 347 206.37 343.5 208.12Z" fill="none"/><path d="M227 310C250.86 307.55 273.61 307.97 337 310M227 310C258.48 309.07 290.86 309.23 337 310M337 310C342.1 308.07 345.28 306.55 347 300M337 310C343.84 308.23 347.03 308.72 347 300M347 300C347.27 268.58 346.59 238.91 347 206.37M347 300C345.24 263.32 345.97 226.83 347 206.37" stroke="#666666" stroke-linecap="round" stroke-linejoin="round" stroke-miterlimit="10" fill="none"/><path d="M347.27 200.81C347.27 200.81 347.27 200.81 347.27 200.81M347.27 200.81C347.27 200.81 347.27 200.81 347.27 200.81M347.67 206.45C347.96 206.14 348.11 205.79 348.98 204.94M347.67 206.45C348.22 205.84 348.66 205.22 348.98 204.94" stroke="#666666" stroke-width="0.5" stroke-linecap="round" stroke-linejoin="round" stroke-miterlimit="10" fill="none"/><path d="M347 201.12C348.33 202.76 349.14 205.71 350.5 208.12M347 201.12C347.51 203.02 348.97 204.35 350.5 208.12M350.5 208.12C349.5 208.13 348.55 207.61 347 206.37M350.5 208.12C349.61 207.69 348.38 207.17 347 206.37M347 206.37C345.81 207.2 344.67 207.23 343.5 208.12M347 206.37C345.96 206.74 344.82 207.45 343.5 208.12M343.5 208.12C345.52 205.78 346.81 202.69 347 201.12M343.5 208.12C344.29 205.62 345.49 203.93 347 201.12" stroke="#666666" stroke-linecap="round" stroke-linejoin="round" stroke-miterlimit="10" fill="none"/><g transform="translate(-0.5 -0.5)"><g><text font-family="Garamond" font-size="14" text-anchor="middle" x="342" y="314">0..1</text></g></g><path d="M187 280 187 206.37" fill="none"/><path d="M187 201.12 190.5 208.12 187 206.37 183.5 208.12Z" fill="none"/><path d="M187 280C185.46 265.08 187.18 249.74 187 206.37M187 280C188.02 253.28 187.98 225.95 187 206.37" stroke="#666666" stroke-linecap="round" stroke-linejoin="round" stroke-miterlimit="10" fill="none"/><path d="M187.25 200.83C187.25 200.83 187.25 200.83 187.25 200.83M187.25 200.83C187.25 200.83 187.25 200.83 187.25 200.83M187.65 206.47C187.93 205.91 188.41 205.78 188.96 204.96M187.65 206.47C188.08 205.87 188.59 205.47 188.96 204.96" stroke="#666666" stroke-width="0.5" stroke-linecap="round" stroke-linejoin="round" stroke-miterlimit="10" fill="none"/><path d="M187 201.12C187.95 203 189.4 204.7 190.5 208.12M187 201.12C188.09 203.35 188.53 205.32 190.5 208.12M190.5 208.12C189.51 207.88 188.17 206.69 187 206.37M190.5 208.12C189.53 207.76 188.89 207.3 187 206.37M187 206.37C185.9 206.91 184.65 207.42 183.5 208.12M187 206.37C186.09 206.94 185.32 207.26 183.5 208.12M183.5 208.12C184.04 205.86 185.35 204.59 187 201.12M183.5 208.12C184.67 205.86 185.35 203.78 187 201.12" stroke="#666666" stroke-linecap="round" stroke-linejoin="round" stroke-miterlimit="10" fill="none"/><g transform="translate(-0.5 -0.5)"><g><text font-family="Garamond" font-size="14" text-anchor="middle" x="187" y="244">0..1</text></g></g><path d="M147 340 147 370C147 376.667 150.333 380 157 380L737 380C743.667 380 747 376.667 747 370L747 195C747 188.333 743.667 185 737 185L713.37 185" fill="none"/><path d="M708.12 185 715.12 181.5 713.37 185 715.12 188.5Z" fill="none"/><path d="M147 340C148.93 346.52 145.48 353.85 147 370M147 340C146.79 347.25 146.33 354.89 147 370M147 370C146.84 375.8 150.37 379.13 157 380M147 370C147.57 376.01 152.3 380.92 157 380M157 380C368.41 377.97 581.41 377.66 737 380M157 380C369.77 381.56 582.54 381.27 737 380M737 380C744.36 378.24 746.32 378.37 747 370M737 380C741.98 379.32 747.18 375.87 747 370M747 370C747.26 303.89 745.03 237.26 747 195M747 370C746.31 317.36 746.23 263.9 747 195M747 195C745.49 187.11 745.03 184.91 737 185M747 195C745.13 188.58 742.28 184.57 737 185M737 185C728.24 186.28 723.29 185.6 713.37 185M737 185C730.12 184.36 721.62 184.77 713.37 185" stroke="#666666" stroke-linecap="round" stroke-linejoin="round" stroke-miterlimit="10" fill="none"/><path d="M708.34 184.75C708.34 184.75 708.34 184.75 708.34 184.75M708.34 184.75C708.34 184.75 708.34 184.75 708.34 184.75M712.01 186.62C712.32 186.23 712.73 185.91 713.33 185.11M712.01 186.62C712.54 186.03 712.9 185.64 713.33 185.11" stroke="#666666" stroke-width="0.5" stroke-linecap="round" stroke-linejoin="round" stroke-miterlimit="10" fill="none"/><path d="M708.12 185C709.55 184.31 712.55 183.56 715.12 181.5M708.12 185C710.24 184.26 712.36 182.68 715.12 181.5M715.12 181.5C714.58 182.97 714.09 183.85 713.37 185M715.12 181.5C714.82 182.29 714.35 182.94 713.37 185M713.37 185C713.55 186.16 714.21 186.46 715.12 188.5M713.37 185C713.91 186.21 714.43 187.03 715.12 188.5M715.12 188.5C712.77 187.78 709.41 186.65 708.12 185M715.12 188.5C713.22 187.37 711.5 186.56 708.12 185" stroke="#666666" stroke-linecap="round" stroke-linejoin="round" stroke-miterlimit="10" fill="none"/><g transform="translate(-0.5 -0.5)"><g><text font-family="Garamond" font-size="14" text-anchor="middle" x="545" y="384">0..1</text></g></g><rect x="67" y="280" width="160" height="60" fill="none"/><path d="M66.77 280.27C66.77 280.27 66.77 280.27 66.77 280.27M66.77 280.27C66.77 280.27 66.77 280.27 66.77 280.27M67.16 285.91C68.7 283.61 71.53 282.05 72.41 279.87M67.16 285.91C68.64 283.62 70.41 281.47 72.41 279.87M66.9 292.31C70.81 289.76 70.97 286.04 77.4 280.23M66.9 292.31C69.73 288.53 73.01 286.19 77.4 280.23M67.29 297.95C69.49 293.29 76.4 286.83 83.04 279.84M67.29 297.95C71.66 294.26 75.34 288.08 83.04 279.84M67.03 304.35C76.82 296.51 82.26 283.87 88.03 280.2M67.03 304.35C75.63 295.32 83.11 285.34 88.03 280.2M66.77 310.75C73.72 301.21 82.15 296.86 93.67 279.81M66.77 310.75C77.75 298.43 87.23 287.02 93.67 279.81M67.17 316.39C77.18 306.76 88.08 293.83 98.66 280.17M67.17 316.39C75.9 305.8 84.32 295.67 98.66 280.17M66.9 322.79C80.68 307.73 92.05 295.46 104.3 279.77M66.9 322.79C78.98 308.86 90.42 295.65 104.3 279.77M67.3 328.43C82.98 308.75 99.79 290.34 109.29 280.13M67.3 328.43C77.24 316.53 86.3 306.2 109.29 280.13M67.04 334.83C78.57 320.66 90.42 308.31 114.93 279.74M67.04 334.83C79.03 322.64 89.62 308.97 114.93 279.74M67.43 340.47C81.65 324.52 96.49 306.7 119.92 280.1M67.43 340.47C87.25 316.6 107.68 295.18 119.92 280.1M73.08 340.08C89.27 318.7 107.28 300.8 125.56 279.7M73.08 340.08C82.98 327.12 94.44 315.49 125.56 279.7M78.06 340.44C91.66 321.85 108.8 305.58 130.55 280.06M78.06 340.44C92.91 321.68 109.93 305.01 130.55 280.06M83.71 340.04C103.58 317.2 126.46 293.41 136.19 279.67M83.71 340.04C96.88 324.03 111.48 309.23 136.19 279.67M88.69 340.4C105.4 318.11 125.4 300.73 141.18 280.03M88.69 340.4C104.3 323.61 117.87 305.66 141.18 280.03M93.68 340.76C114.07 318.27 132.4 293.38 146.82 279.63M93.68 340.76C107.23 324.45 122.33 306.86 146.82 279.63M99.32 340.37C114.51 321.15 132.18 303.84 151.81 279.99M99.32 340.37C111.7 325.12 124.61 311.33 151.81 279.99M104.31 340.73C118.35 324.02 134.37 308.02 156.79 280.35M104.31 340.73C122.99 320.57 139.84 301.43 156.79 280.35M109.95 340.34C130.25 318.31 150.9 294.6 162.44 279.96M109.95 340.34C123.42 325.54 136.1 311.03 162.44 279.96M114.94 340.7C125.5 324.04 137.7 310.09 167.42 280.32M114.94 340.7C131.22 320.45 148.51 302.05 167.42 280.32M120.58 340.3C139.29 321.25 155.7 299.97 173.07 279.92M120.58 340.3C136.55 322.39 152.64 304.25 173.07 279.92M125.57 340.66C139.18 321.48 156.69 304.81 178.05 280.28M125.57 340.66C138.21 326.44 149.54 312.17 178.05 280.28M131.21 340.27C149.13 319.87 165.81 301.69 183.7 279.89M131.21 340.27C143.22 325.85 155.37 311.52 183.7 279.89M136.2 340.63C155.56 320.08 175.01 297.45 188.68 280.25M136.2 340.63C155.34 320.7 173.3 297.97 188.68 280.25M141.84 340.23C162.81 318.14 182 294.35 194.33 279.85M141.84 340.23C153.75 328.17 164.21 313.56 194.33 279.85M146.83 340.59C163.28 323.93 180.19 303.42 199.31 280.21M146.83 340.59C162.8 321.8 177.23 305.6 199.31 280.21M152.47 340.2C171.16 320.8 189.55 298.07 204.96 279.82M152.47 340.2C171.59 316.14 192.49 293.94 204.96 279.82M157.46 340.56C174.3 322.69 188.7 307.25 209.94 280.18M157.46 340.56C169.86 327.17 180.25 313.18 209.94 280.18M163.1 340.16C174.64 327.43 187.92 310.5 215.59 279.79M163.1 340.16C175.87 324.05 189.35 310.24 215.59 279.79M168.09 340.52C184.6 321.53 200.37 302.77 220.57 280.15M168.09 340.52C187.38 317.42 207.06 295.2 220.57 280.15M173.73 340.13C193.76 316.03 212.82 296.31 226.22 279.75M173.73 340.13C190.56 321.33 205.53 303.11 226.22 279.75M178.72 340.49C197.72 318.12 218.46 292.97 229.24 282.38M178.72 340.49C196.81 319.31 215.7 298.68 229.24 282.38M184.36 340.09C198.31 326.2 207.37 314.92 229.63 288.02M184.36 340.09C194.11 329.72 202.32 317.8 229.63 288.02M189.35 340.45C204.98 322.19 220.07 308.13 229.37 294.42M189.35 340.45C200.54 328.89 209.99 317.39 229.37 294.42M194.99 340.06C208.58 328.14 218.21 311.3 229.76 300.06M194.99 340.06C207.87 325.72 221.73 310.93 229.76 300.06M199.98 340.42C212.58 326.28 222.97 312.14 229.5 306.46M199.98 340.42C209.63 328.93 217.35 319.36 229.5 306.46M204.97 340.78C209.18 335.25 215.26 328.6 229.24 312.86M204.97 340.78C210.68 335.22 215.71 330.11 229.24 312.86M210.61 340.38C215.7 333.73 223.62 324.58 229.64 318.5M210.61 340.38C215.26 336.2 220.1 329.4 229.64 318.5M215.6 340.74C217.82 337.2 223.97 331.76 229.37 324.9M215.6 340.74C218.29 336.41 222.34 332.11 229.37 324.9M221.24 340.35C223.64 336.61 228.35 332.19 229.77 330.54M221.24 340.35C223.86 337.38 226.83 334.44 229.77 330.54M226.23 340.71C226.76 339.79 227.87 339.18 229.51 336.94M226.23 340.71C227.27 339.48 228.08 338.41 229.51 336.94" stroke="#F5F5F5" stroke-width="0.5" stroke-linecap="round" stroke-linejoin="round" stroke-miterlimit="10" fill="none"/><path d="M67 280C101.67 277.8 136.21 280.64 227 280M67 280C110.99 280.19 155.26 280.24 227 280M227 280C225.09 293.6 227.57 309.1 227 340M227 280C226.68 297.06 226.9 313.73 227 340M227 340C193.38 338.34 158.14 337.82 67 340M227 340C179.88 339.22 131.27 339.45 67 340M67 340C67.93 321.36 68.26 304.88 67 280M67 340C66.47 325.35 66.91 308.33 67 280" stroke="#666666" stroke-linecap="round" stroke-linejoin="round" stroke-miterlimit="10" fill="none"/><g transform="translate(-0.5 -0.5)"><g><text fill="#333333" font-family="Garamond" font-size="14" x="67" y="294">dcat:CatalogRecord</text></g></g><path d="M147 140 147 110C147 103.333 143.667 100 137 100L117 100C110.333 100 107 103.333 107 110L107 133.63" fill="none"/><path d="M107 138.88 103.5 131.88 107 133.63 110.5 131.88Z" fill="none"/><path d="M147 140C146.34 132.45 145.49 125.59 147 110M147 140C147.73 129.77 146.31 117.8 147 110M147 110C148.57 104.7 144.86 100.82 137 100M147 110C147 101.89 143.54 101.9 137 100M137 100C129.3 101.7 124.92 99.47 117 100M137 100C131.75 99.08 127.7 99.49 117 100M117 100C111.55 99.81 105.73 101.76 107 110M117 100C111.17 102.29 105.85 104.48 107 110M107 110C107.75 117.35 106.1 126.11 107 133.63M107 110C107.78 117.2 106.62 124.09 107 133.63" stroke="#666666" stroke-linecap="round" stroke-linejoin="round" stroke-miterlimit="10" fill="none"/><path d="M103.44 131.95C103.44 131.95 103.44 131.95 103.44 131.95M103.44 131.95C103.44 131.95 103.44 131.95 103.44 131.95M105.15 136.08C106 135.21 106.43 134.34 107.12 133.82M105.15 136.08C106.04 135.1 106.76 134.37 107.12 133.82" stroke="#666666" stroke-width="0.5" stroke-linecap="round" stroke-linejoin="round" stroke-miterlimit="10" fill="none"/><path d="M107 138.88C105.66 136.68 104.57 135.41 103.5 131.88M107 138.88C105.8 136.75 105.28 135.62 103.5 131.88M103.5 131.88C104.08 132 105.44 132.43 107 133.63M103.5 131.88C104.36 132.45 105.5 132.88 107 133.63M107 133.63C107.59 133.55 108.52 132.89 110.5 131.88M107 133.63C108.04 132.97 109.22 132.57 110.5 131.88M110.5 131.88C109.67 134.47 107.83 136.93 107 138.88M110.5 131.88C109.13 134.41 107.74 137.64 107 138.88" stroke="#666666" stroke-linecap="round" stroke-linejoin="round" stroke-miterlimit="10" fill="none"/><g transform="translate(-0.5 -0.5)"><g><text font-family="Garamond" font-size="14" text-anchor="middle" x="127" y="104">0..n</text></g></g></g><g><a transform="matrix(1 0 0 1 0 -5)"><text font-size="10" text-anchor="middle" x="50%" y="100%">Text is not SVG - cannot display</text></a></g></svg>